# File created by Blade
# Date/Time:  Fri Jan 16 19:32:17 2015
# Frame Rate: 120.000 fps
#------------------------------------------------------
:FULLY-SPECIFIED
:DEGREES
249
root 19.520915 35.505110 -20.153725 12.085264 13.532496 0.467709
Spine -29.266705 -13.035803 1.151526
Head 19.880882 0.981147 6.678214
LeftShoulder 1.998801 -13.757593 -7.393882
LeftArm -113.843915 60.418407 -216.564851
LeftForeArm 34.511773 -0.000000 127.669047
LeftHand 11.472773 -0.000000 -6.079504
LeftHandThumb1 -26.253704 0.000000 33.147579
RightShoulder -14.915088 23.198918 -32.372261
RightArm -204.338880 61.305697 -232.940816
RightForeArm 24.950945 -0.000000 156.056963
RightHand 9.996867 -0.000000 -23.369912
RightHandThumb1 -24.326973 -0.000000 -32.862282
LeftUpLeg -3.448582 -0.068403 1.443736
LeftLeg -7.111477 -0.000000 0.000000
LeftFoot -18.669805 25.212537 -13.847718
LeftToeBase 26.050663 -0.000000 -0.000000
RightUpLeg -0.437110 -17.372006 -0.353866
RightLeg -4.439808 -0.000000 0.000000
RightFoot -24.060896 -25.484396 21.746331
RightToeBase 23.579903 -0.000000 -0.000000
250
root 19.520155 35.503794 -20.149314 12.118751 13.561220 0.454485
Spine -29.247708 -12.990227 1.046611
Head 19.829333 0.857971 6.843740
LeftShoulder 2.003878 -13.745551 -7.401364
LeftArm -113.768664 60.438632 -216.484877
LeftForeArm 34.511235 -0.000000 127.668452
LeftHand 11.452342 -0.000000 -5.793661
LeftHandThumb1 -26.253704 0.000000 33.147579
RightShoulder -14.986464 23.083411 -32.412910
RightArm -204.317788 61.097231 -233.039785
RightForeArm 24.642277 0.000000 156.033952
RightHand 9.902019 -0.000000 -23.262222
RightHandThumb1 -24.326973 -0.000000 -32.862282
LeftUpLeg -3.460921 -0.088242 1.462612
LeftLeg -7.155296 -0.000000 0.000000
LeftFoot -18.647825 25.234709 -13.796218
LeftToeBase 26.054867 -0.000000 -0.000000
RightUpLeg -0.445822 -17.409069 -0.325322
RightLeg -4.474263 -0.000000 0.000000
RightFoot -24.042018 -25.471569 21.739197
RightToeBase 23.575003 -0.000000 -0.000000
251
root 19.519896 35.503932 -20.145275 12.177309 13.613680 0.455305
Spine -29.253052 -13.013554 0.962926
Head 19.769044 0.788945 6.992031
LeftShoulder 1.909788 -13.705173 -7.388549
LeftArm -113.743593 60.491321 -216.432825
LeftForeArm 34.475097 0.000000 127.682054
LeftHand 11.439901 0.000000 -5.327782
LeftHandThumb1 -26.253704 0.000000 33.147579
RightShoulder -15.066895 23.070042 -32.458307
RightArm -204.468556 60.988037 -233.324290
RightForeArm 23.973948 -0.000000 156.048128
RightHand 9.667416 -0.000000 -23.293806
RightHandThumb1 -24.326973 -0.000000 -32.862282
LeftUpLeg -3.509499 -0.116829 1.470312
LeftLeg -7.176623 -0.000000 0.000000
LeftFoot -18.627501 25.230263 -13.792946
LeftToeBase 26.006359 -0.000000 -0.000000
RightUpLeg -0.477942 -17.469056 -0.298168
RightLeg -4.505727 -0.000000 0.000000
RightFoot -24.020087 -25.464385 21.760796
RightToeBase 23.567651 -0.000000 -0.000000
252
root 19.519896 35.502888 -20.140391 12.218307 13.658306 0.440989
Spine -29.252791 -13.026466 0.893823
Head 19.744205 0.714999 7.123101
LeftShoulder 1.836770 -13.608809 -7.373918
LeftArm -113.794587 60.650035 -216.403904
LeftForeArm 34.335119 0.000000 127.690080
LeftHand 11.419370 -0.000000 -5.289121
LeftHandThumb1 -26.253704 0.000000 33.147579
RightShoulder -15.073331 23.057511 -32.477174
RightArm -204.507210 60.875603 -233.615884
RightForeArm 23.400505 -0.000000 156.083190
RightHand 9.671806 -0.000000 -23.010569
RightHandThumb1 -24.326973 -0.000000 -32.862282
LeftUpLeg -3.537017 -0.131821 1.490645
LeftLeg -7.207914 -0.000000 0.000000
LeftFoot -18.619616 25.226694 -13.762063
LeftToeBase 26.075749 -0.000000 -0.000000
RightUpLeg -0.491971 -17.533987 -0.263281
RightLeg -4.541825 -0.000000 0.000000
RightFoot -24.006489 -25.433066 21.773247
RightToeBase 23.592800 -0.000000 -0.000000
253
root 19.518868 35.502141 -20.135946 12.276074 13.730907 0.452344
Spine -29.258222 -13.084281 0.801292
Head 19.716212 0.661710 7.269119
LeftShoulder 1.752710 -13.501543 -7.344251
LeftArm -113.818519 60.780788 -216.372824
LeftForeArm 34.274279 0.000000 127.691908
LeftHand 11.487470 0.000000 -4.847472
LeftHandThumb1 -26.253704 0.000000 33.147579
RightShoulder -15.100192 23.073823 -32.503628
RightArm -204.550539 60.798113 -233.887082
RightForeArm 22.629210 0.000000 156.190324
RightHand 9.453938 -0.000000 -23.082242
RightHandThumb1 -24.326973 -0.000000 -32.862282
LeftUpLeg -3.589673 -0.188720 1.497694
LeftLeg -7.223142 -0.000000 0.000000
LeftFoot -18.606485 25.213034 -13.757873
LeftToeBase 26.061006 -0.000000 -0.000000
RightUpLeg -0.508667 -17.632366 -0.242296
RightLeg -4.589662 -0.000000 0.000000
RightFoot -23.983827 -25.405205 21.779106
RightToeBase 23.549357 -0.000000 -0.000000
254
root 19.518495 35.501242 -20.129754 12.317492 13.814213 0.454253
Spine -29.251172 -13.151500 0.727847
Head 19.685403 0.631821 7.429614
LeftShoulder 1.736885 -13.424251 -7.347673
LeftArm -113.699399 60.837767 -216.249049
LeftForeArm 34.376312 -0.000000 127.642549
LeftHand 11.284934 -0.000000 -4.461001
LeftHandThumb1 -26.253704 0.000000 33.147579
RightShoulder -15.132135 23.046202 -32.502660
RightArm -204.598580 60.742339 -234.253591
RightForeArm 21.697291 0.000000 156.347484
RightHand 9.289510 -0.000000 -23.015244
RightHandThumb1 -24.326973 -0.000000 -32.862282
LeftUpLeg -3.622761 -0.257407 1.516178
LeftLeg -7.243642 -0.000000 0.000000
LeftFoot -18.591563 25.207244 -13.746216
LeftToeBase 26.076389 -0.000000 -0.000000
RightUpLeg -0.506871 -17.740243 -0.217795
RightLeg -4.635159 -0.000000 0.000000
RightFoot -23.967448 -25.364069 21.806509
RightToeBase 23.544724 -0.000000 -0.000000
255
root 19.518134 35.500135 -20.127636 12.382993 13.868044 0.448514
Spine -29.274825 -13.164642 0.682298
Head 19.670816 0.650717 7.559692
LeftShoulder 1.722376 -13.411787 -7.371866
LeftArm -113.604889 60.848374 -216.137949
LeftForeArm 34.392408 -0.000000 127.641490
LeftHand 11.207091 -0.000000 -4.123200
LeftHandThumb1 -26.253704 0.000000 33.147579
RightShoulder -15.222160 23.105562 -32.613449
RightArm -204.919382 60.795443 -234.811318
RightForeArm 20.211523 -0.000000 156.584302
RightHand 8.919966 -0.000000 -23.291150
RightHandThumb1 -24.326973 -0.000000 -32.862282
LeftUpLeg -3.692752 -0.293638 1.533197
LeftLeg -7.244946 -0.000000 0.000000
LeftFoot -18.583776 25.196252 -13.725847
LeftToeBase 26.058987 -0.000000 -0.000000
RightUpLeg -0.553008 -17.806530 -0.180654
RightLeg -4.664849 -0.000000 0.000000
RightFoot -23.944630 -25.364560 21.792048
RightToeBase 23.563726 -0.000000 -0.000000
256
root 19.515978 35.499380 -20.128295 12.462183 13.896881 0.442969
Spine -29.306660 -13.130567 0.603954
Head 19.655913 0.538402 7.627643
LeftShoulder 1.738129 -13.420617 -7.391140
LeftArm -113.569801 60.850890 -216.082361
LeftForeArm 34.417256 -0.000000 127.669249
LeftHand 11.297383 -0.000000 -3.892855
LeftHandThumb1 -26.253704 0.000000 33.147579
RightShoulder -15.235567 23.098430 -32.657288
RightArm -204.864398 60.766847 -235.054771
RightForeArm 18.523819 -0.000000 156.800220
RightHand 8.326778 -0.000000 -23.764300
RightHandThumb1 -24.326973 -0.000000 -32.862282
LeftUpLeg -3.782079 -0.304888 1.548575
LeftLeg -7.239252 -0.000000 0.000000
LeftFoot -18.579532 25.181692 -13.688168
LeftToeBase 26.068833 -0.000000 -0.000000
RightUpLeg -0.637106 -17.823628 -0.140472
RightLeg -4.662052 -0.000000 0.000000
RightFoot -23.968106 -25.366332 21.804104
RightToeBase 23.617576 -0.000000 -0.000000
257
root 19.515049 35.497805 -20.126688 12.533623 13.936339 0.444827
Spine -29.345990 -13.141412 0.543091
Head 19.664460 0.456765 7.672895
LeftShoulder 1.682374 -13.390707 -7.394628
LeftArm -113.654703 60.876964 -216.147598
LeftForeArm 34.394241 0.000000 127.740746
LeftHand 11.267601 -0.000000 -3.665436
LeftHandThumb1 -26.253704 0.000000 33.147579
RightShoulder -15.263448 23.212402 -32.753158
RightArm -205.226484 60.895620 -235.669104
RightForeArm 16.351510 0.000000 157.023710
RightHand 7.717611 -0.000000 -24.487335
RightHandThumb1 -24.326973 -0.000000 -32.862282
LeftUpLeg -3.849573 -0.348498 1.560188
LeftLeg -7.252727 -0.000000 0.000000
LeftFoot -18.578922 25.189180 -13.668799
LeftToeBase 26.082668 -0.000000 -0.000000
RightUpLeg -0.697818 -17.863805 -0.111532
RightLeg -4.670529 -0.000000 0.000000
RightFoot -23.968285 -25.361615 21.791724
RightToeBase 23.599750 -0.000000 -0.000000
258
root 19.514606 35.496049 -20.121862 12.581642 13.988394 0.445802
Spine -29.356420 -13.191283 0.477320
Head 19.655547 0.363629 7.751128
LeftShoulder 1.657945 -13.372675 -7.393979
LeftArm -113.524203 60.880096 -216.024007
LeftForeArm 34.467683 -0.000000 127.749514
LeftHand 11.270225 0.000000 -3.458619
LeftHandThumb1 -26.253704 0.000000 33.147579
RightShoulder -15.229453 23.313688 -32.789862
RightArm -205.426824 61.020922 -236.146894
RightForeArm 13.949528 0.000000 157.216161
RightHand 6.954277 -0.000000 -25.308281
RightHandThumb1 -24.326973 -0.000000 -32.862282
LeftUpLeg -3.895508 -0.391549 1.573796
LeftLeg -7.257065 -0.000000 0.000000
LeftFoot -18.582382 25.192764 -13.644762
LeftToeBase 26.090793 -0.000000 -0.000000
RightUpLeg -0.719835 -17.923715 -0.087330
RightLeg -4.699082 -0.000000 0.000000
RightFoot -23.960870 -25.362198 21.776215
RightToeBase 23.588287 -0.000000 -0.000000
